<svg width="20" height="20" viewBox="0 0 20 20" fill="none" xmlns="http://www.w3.org/2000/svg">
<g clip-path="url(#clip0_493_228)">
<path d="M10.0002 0C4.47835 0 0.000732422 4.58456 0.000732422 10.2401C0.000732422 14.7644 2.86587 18.6029 6.83899 19.9569C7.33872 20.0517 7.52223 19.7347 7.52223 19.4642C7.52223 19.2201 7.51285 18.4134 7.50863 17.5578C4.72677 18.1772 4.13978 16.3496 4.13978 16.3496C3.68488 15.166 3.02945 14.8512 3.02945 14.8512C2.12224 14.2157 3.09789 14.2288 3.09789 14.2288C4.10197 14.301 4.63068 15.284 4.63068 15.284C5.52258 16.8494 6.97 16.3969 7.54059 16.1352C7.63035 15.4734 7.88947 15.0216 8.17547 14.7659C5.95443 14.507 3.61965 13.629 3.61965 9.70528C3.61965 8.58728 4.01025 7.67376 4.6499 6.95664C4.54608 6.69872 4.20384 5.65728 4.74677 4.24672C4.74677 4.24672 5.58649 3.97152 7.49738 5.2964C8.29499 5.06952 9.15041 4.95576 10.0002 4.95184C10.85 4.95576 11.7061 5.06944 12.5052 5.2964C14.4138 3.9716 15.2523 4.2468 15.2523 4.2468C15.7966 5.6572 15.4542 6.6988 15.3503 6.95664C15.9915 7.67376 16.3794 8.58728 16.3794 9.70528C16.3794 13.6383 14.0402 14.5043 11.8135 14.7578C12.1722 15.0756 12.4918 15.6988 12.4918 16.6542C12.4918 18.0242 12.4802 19.127 12.4802 19.4642C12.4802 19.7368 12.6602 20.0561 13.167 19.9554C17.138 18.6 19.9995 14.763 19.9995 10.2402C19.9995 4.58456 15.5225 0 10.0002 0ZM3.74589 14.5872C3.72387 14.6381 3.64567 14.6534 3.5745 14.6184C3.50193 14.585 3.46122 14.5157 3.48466 14.4646C3.50622 14.4122 3.58458 14.3976 3.65692 14.4327C3.72957 14.4662 3.77097 14.5362 3.74589 14.5872ZM4.23774 15.0366C4.19009 15.0819 4.09681 15.0609 4.03353 14.9894C3.96815 14.918 3.95588 14.8225 4.00424 14.7766C4.05345 14.7313 4.14384 14.7525 4.20938 14.8238C4.27485 14.8961 4.2875 14.9909 4.23774 15.0366ZM4.57522 15.6117C4.5139 15.6553 4.41374 15.6144 4.3518 15.5234C4.29055 15.4323 4.29055 15.3231 4.35312 15.2794C4.41523 15.2356 4.5139 15.275 4.57663 15.3654C4.63772 15.4579 4.63772 15.5671 4.57514 15.6118L4.57522 15.6117ZM5.14581 16.2777C5.09105 16.3396 4.97426 16.323 4.88879 16.2385C4.80138 16.1559 4.77708 16.0388 4.83208 15.9769C4.88754 15.9148 5.00496 15.9322 5.09105 16.0161C5.17776 16.0985 5.20432 16.2165 5.14581 16.2777ZM5.88342 16.5025C5.8592 16.5827 5.74671 16.6192 5.63351 16.5851C5.5204 16.55 5.44642 16.4561 5.46923 16.375C5.49274 16.2942 5.6057 16.2563 5.71976 16.2928C5.83272 16.3277 5.90694 16.421 5.88342 16.5026V16.5025ZM6.72274 16.5979C6.72556 16.6823 6.62955 16.7523 6.51065 16.7539C6.39112 16.7566 6.29433 16.6883 6.293 16.6051C6.293 16.5199 6.38691 16.4506 6.50651 16.4485C6.62541 16.4461 6.72274 16.5139 6.72274 16.5979ZM7.5473 16.5655C7.56152 16.6479 7.47895 16.7326 7.36083 16.7551C7.24482 16.7768 7.13733 16.7259 7.12256 16.6442C7.10819 16.5598 7.19233 16.4751 7.30818 16.4533C7.42645 16.4322 7.53223 16.4818 7.5473 16.5655Z" fill="#565656"/>
</g>
<defs>
<clipPath id="clip0_493_228">
<rect width="20" height="20" fill="white"/>
</clipPath>
</defs>
</svg>
