<svg width="128" height="128" viewBox="0 0 128 128" fill="none" xmlns="http://www.w3.org/2000/svg">
<path d="M37.3334 12H28.0001C26.5856 12 25.229 12.5619 24.2288 13.5621C23.2287 14.5623 22.6667 15.9188 22.6667 17.3333V110.667C22.6667 112.081 23.2287 113.438 24.2288 114.438C25.229 115.438 26.5856 116 28.0001 116H100C101.415 116 102.771 115.438 103.771 114.438C104.772 113.438 105.333 112.081 105.333 110.667V17.3333C105.333 15.9188 104.772 14.5623 103.771 13.5621C102.771 12.5619 101.415 12 100 12H64.0001" stroke="black" stroke-width="3" stroke-linecap="round" stroke-linejoin="round"/>
<path d="M32 12L35.7707 8.22929C36.7706 7.22903 38.127 6.66693 39.5413 6.66663H61.3333C62.0406 6.66663 62.7189 6.94758 63.219 7.44767C63.7191 7.94777 64 8.62605 64 9.33329V76L50.6667 62.6666L37.3333 76V12M37.3333 101.333H90.6667M64 26.6666H90.6667M64 45.3333H90.6667M64 64H90.6667M37.3333 82.6666H90.6667" stroke="black" stroke-width="3" stroke-linecap="round" stroke-linejoin="round"/>
</svg>
